<svg width="19" height="19" viewBox="0 0 19 19" fill="none" xmlns="http://www.w3.org/2000/svg">
<path d="M14.7873 3.7334H3.5441C3.23362 3.7334 2.98193 3.98509 2.98193 4.29556V15.5388C2.98193 15.8493 3.23362 16.101 3.5441 16.101H14.7873C15.0978 16.101 15.3495 15.8493 15.3495 15.5388V4.29556C15.3495 3.98509 15.0978 3.7334 14.7873 3.7334Z" stroke="white" stroke-width="1.34919" stroke-linecap="round" stroke-linejoin="round"/>
<path d="M12.5387 2.60889V4.85754" stroke="white" stroke-width="1.34919" stroke-linecap="round" stroke-linejoin="round"/>
<path d="M5.79279 2.60889V4.85754" stroke="white" stroke-width="1.34919" stroke-linecap="round" stroke-linejoin="round"/>
<path d="M2.98193 7.10596H15.3495" stroke="white" stroke-width="1.34919" stroke-linecap="round" stroke-linejoin="round"/>
<path d="M6.63599 9.9165H8.60355L7.47923 11.3219C7.6641 11.3219 7.84611 11.3675 8.00916 11.4546C8.1722 11.5418 8.31125 11.6678 8.41398 11.8215C8.51671 11.9751 8.57995 12.1518 8.59812 12.3358C8.61628 12.5197 8.5888 12.7054 8.5181 12.8762C8.44741 13.047 8.33568 13.1977 8.19282 13.3151C8.04997 13.4324 7.88038 13.5127 7.69908 13.5489C7.51778 13.585 7.33036 13.5759 7.15343 13.5223C6.97649 13.4687 6.8155 13.3724 6.6847 13.2417" stroke="white" stroke-width="1.34919" stroke-linecap="round" stroke-linejoin="round"/>
<path d="M10.29 10.7597L11.4144 9.9165V13.5706" stroke="white" stroke-width="1.34919" stroke-linecap="round" stroke-linejoin="round"/>
</svg>
