<svg width="21" height="11" viewBox="0 0 21 11" fill="none" xmlns="http://www.w3.org/2000/svg">
<path d="M7.21286 10.4707C6.25109 10.4707 5.7702 10.1229 5.7702 9.42737C5.7702 9.04133 5.88168 8.65862 6.10466 8.27923C6.32763 7.89652 6.63879 7.55208 7.03814 7.24591C7.44082 6.93641 7.91505 6.68848 8.46084 6.50211C9.00662 6.31575 9.60232 6.22257 10.2479 6.22257C10.8969 6.22257 11.4926 6.31575 12.035 6.50211C12.5808 6.68848 13.0551 6.93641 13.4577 7.24591C13.8604 7.55208 14.1732 7.89652 14.3962 8.27923C14.6192 8.65862 14.7307 9.04133 14.7307 9.42737C14.7307 10.1229 14.2498 10.4707 13.288 10.4707H7.21286ZM7.28774 9.25265H13.2131C13.2531 9.25265 13.2797 9.24433 13.293 9.22769C13.3096 9.21106 13.318 9.18776 13.318 9.15781C13.318 9.01138 13.2481 8.84165 13.1083 8.64863C12.9719 8.45561 12.7722 8.26758 12.5093 8.08455C12.2464 7.89818 11.9236 7.7451 11.5408 7.62529C11.1615 7.50549 10.7305 7.44558 10.2479 7.44558C9.76539 7.44558 9.33442 7.50549 8.95503 7.62529C8.57565 7.7451 8.2545 7.89818 7.9916 8.08455C7.72869 8.26758 7.52735 8.45561 7.38758 8.64863C7.25113 8.84165 7.18291 9.01138 7.18291 9.15781C7.18291 9.18776 7.18956 9.21106 7.20288 9.22769C7.21952 9.24433 7.2478 9.25265 7.28774 9.25265ZM10.2479 5.75832C9.82529 5.75832 9.44258 5.65016 9.0998 5.43385C8.75702 5.2142 8.48413 4.91968 8.28113 4.55028C8.07812 4.17755 7.97662 3.76489 7.97662 3.31229C7.97329 2.86967 8.0748 2.46533 8.28113 2.09925C8.48746 1.73318 8.76201 1.44032 9.10479 1.22068C9.4509 1.00103 9.83195 0.891211 10.2479 0.891211C10.6673 0.891211 11.0483 1.00103 11.3911 1.22068C11.7372 1.43699 12.0117 1.72819 12.2147 2.09426C12.4211 2.46033 12.5242 2.86468 12.5242 3.30729C12.5242 3.76322 12.4227 4.17755 12.2197 4.55028C12.0167 4.91968 11.7438 5.2142 11.4011 5.43385C11.0583 5.65016 10.6739 5.75832 10.2479 5.75832ZM10.2479 4.54529C10.441 4.54529 10.6157 4.49204 10.7721 4.38555C10.9318 4.27572 11.0583 4.12763 11.1515 3.94127C11.2447 3.75157 11.2912 3.54025 11.2912 3.30729C11.2912 3.08432 11.243 2.88298 11.1465 2.70327C11.0533 2.52024 10.9268 2.37547 10.7671 2.26898C10.6107 2.16248 10.4376 2.10924 10.2479 2.10924C10.0649 2.10924 9.89351 2.16248 9.73377 2.26898C9.57403 2.37547 9.44591 2.52024 9.3494 2.70327C9.25289 2.88298 9.20629 3.08432 9.20962 3.30729C9.20962 3.54358 9.25621 3.7549 9.3494 3.94127C9.44591 4.12763 9.57237 4.27572 9.72878 4.38555C9.88852 4.49204 10.0616 4.54529 10.2479 4.54529ZM1.6968 10.4757C1.28081 10.4757 0.967985 10.3792 0.758325 10.1861C0.548665 9.99645 0.443835 9.72356 0.443835 9.36747C0.443835 8.9548 0.545337 8.56044 0.748341 8.18439C0.951345 7.805 1.23089 7.46888 1.58698 7.17602C1.9464 6.88316 2.36239 6.65187 2.83496 6.48215C3.30752 6.30909 3.81504 6.22257 4.35749 6.22257C4.57048 6.22257 4.79844 6.2442 5.04138 6.28746C5.28765 6.3274 5.53059 6.38397 5.7702 6.45719C6.00981 6.52707 6.22945 6.61027 6.42913 6.70678C6.21947 6.83324 6.04143 6.97468 5.895 7.13109C5.74857 7.28418 5.62876 7.4539 5.53558 7.64027C5.4424 7.60033 5.32592 7.56373 5.18615 7.53045C5.04637 7.49717 4.90161 7.47054 4.75185 7.45058C4.60542 7.42728 4.47397 7.41563 4.35749 7.41563C3.99807 7.41563 3.66195 7.46722 3.34912 7.57038C3.0363 7.67022 2.76174 7.80667 2.52546 7.97972C2.28918 8.14944 2.10614 8.33914 1.97635 8.5488C1.84656 8.75846 1.78167 8.97144 1.78167 9.18776C1.78167 9.21106 1.78666 9.23269 1.79664 9.25265C1.80995 9.26929 1.83491 9.27761 1.87152 9.27761H4.93655C4.91658 9.48727 4.94986 9.71025 5.03639 9.94653C5.12624 10.1828 5.26435 10.3592 5.45072 10.4757H1.6968ZM4.36248 5.84817C3.98975 5.84817 3.65197 5.75166 3.34912 5.55864C3.04961 5.36562 2.81 5.10604 2.63029 4.77991C2.45391 4.45377 2.36405 4.09102 2.36073 3.69167C2.36073 3.3023 2.45058 2.94621 2.63029 2.6234C2.81 2.30059 3.05127 2.04434 3.35412 1.85465C3.66029 1.66163 3.99641 1.56512 4.36248 1.56512C4.72523 1.56512 5.05636 1.66163 5.35587 1.85465C5.65871 2.04434 5.89999 2.30059 6.0797 2.6234C6.26273 2.94288 6.35425 3.29731 6.35425 3.68668C6.35425 4.08603 6.2644 4.45044 6.08469 4.77991C5.90831 5.10604 5.6687 5.36562 5.36585 5.55864C5.06301 5.75166 4.72855 5.84817 4.36248 5.84817ZM4.36248 4.65012C4.50558 4.65012 4.63704 4.60852 4.75684 4.52532C4.87998 4.44212 4.97815 4.32731 5.05136 4.18088C5.12458 4.03445 5.16119 3.86972 5.16119 3.68668C5.16119 3.51363 5.12291 3.35721 5.04637 3.21744C4.97316 3.07767 4.87498 2.96618 4.75185 2.88298C4.63204 2.79978 4.50225 2.75818 4.36248 2.75818C4.21938 2.75818 4.08626 2.79978 3.96313 2.88298C3.83999 2.96618 3.74182 3.07933 3.66861 3.22243C3.59539 3.3622 3.55878 3.51862 3.55878 3.69167C3.55878 3.87471 3.59539 4.03944 3.66861 4.18587C3.74182 4.32897 3.83833 4.44212 3.95814 4.52532C4.08127 4.60852 4.21605 4.65012 4.36248 4.65012ZM18.8041 10.4757H15.0502C15.2398 10.3592 15.378 10.1828 15.4645 9.94653C15.5543 9.71025 15.5893 9.48727 15.5693 9.27761H18.6293C18.6693 9.27761 18.6959 9.26929 18.7092 9.25265C18.7225 9.23269 18.7292 9.21106 18.7292 9.18776C18.7292 8.97144 18.6626 8.75846 18.5295 8.5488C18.3964 8.33914 18.2117 8.14944 17.9754 7.97972C17.7425 7.80667 17.4696 7.67022 17.1567 7.57038C16.8439 7.46722 16.5061 7.41563 16.1434 7.41563C16.0302 7.41563 15.8988 7.42728 15.749 7.45058C15.6026 7.47054 15.4595 7.49717 15.3197 7.53045C15.1799 7.56373 15.0651 7.60033 14.9753 7.64027C14.8788 7.4539 14.7573 7.28418 14.6109 7.13109C14.4644 6.97468 14.2864 6.83324 14.0767 6.70678C14.2764 6.61027 14.4961 6.52707 14.7357 6.45719C14.9753 6.38397 15.2165 6.3274 15.4595 6.28746C15.7058 6.2442 15.9337 6.22257 16.1434 6.22257C16.6892 6.22257 17.1983 6.30909 17.6709 6.48215C18.1435 6.65187 18.5578 6.88316 18.9139 7.17602C19.2733 7.46888 19.5545 7.805 19.7575 8.18439C19.9605 8.56044 20.062 8.9548 20.062 9.36747C20.062 9.72356 19.9572 9.99645 19.7475 10.1861C19.5379 10.3792 19.2234 10.4757 18.8041 10.4757ZM16.1434 5.84817C15.7773 5.84817 15.4428 5.75166 15.14 5.55864C14.8372 5.36562 14.5959 5.10604 14.4162 4.77991C14.2398 4.45044 14.1516 4.08603 14.1516 3.68668C14.1516 3.29731 14.2415 2.94288 14.4212 2.6234C14.6009 2.30059 14.8422 2.04434 15.145 1.85465C15.4478 1.66163 15.7806 1.56512 16.1434 1.56512C16.5095 1.56512 16.8439 1.66163 17.1468 1.85465C17.4529 2.04434 17.6959 2.30059 17.8756 2.6234C18.0553 2.94621 18.1451 3.3023 18.1451 3.69167C18.1418 4.09102 18.0503 4.45377 17.8706 4.77991C17.6909 5.10604 17.4513 5.36562 17.1517 5.55864C16.8522 5.75166 16.5161 5.84817 16.1434 5.84817ZM16.1434 4.65012C16.2898 4.65012 16.4229 4.60852 16.5427 4.52532C16.6659 4.44212 16.764 4.32897 16.8373 4.18587C16.9105 4.03944 16.9471 3.87471 16.9471 3.69167C16.9471 3.51862 16.9105 3.3622 16.8373 3.22243C16.764 3.07933 16.6659 2.96618 16.5427 2.88298C16.4196 2.79978 16.2865 2.75818 16.1434 2.75818C16.0036 2.75818 15.8722 2.79978 15.749 2.88298C15.6292 2.96618 15.531 3.07767 15.4545 3.21744C15.3813 3.35721 15.3447 3.51363 15.3447 3.68668C15.3447 3.86972 15.3813 4.03445 15.4545 4.18088C15.5277 4.32731 15.6242 4.44212 15.744 4.52532C15.8672 4.60852 16.0003 4.65012 16.1434 4.65012Z" fill="#727272"/>
</svg>
