<svg width="18" height="16" viewBox="0 0 18 16" fill="none" xmlns="http://www.w3.org/2000/svg">
<path d="M9.23009 9.05211C8.96365 9.05621 8.68901 9.02342 8.40617 8.95373C8.12743 8.87995 7.82 8.76722 7.48387 8.61556L1.40901 5.83637C1.18766 5.74209 1.01959 5.60477 0.904817 5.42441C0.794142 5.23995 0.738804 5.04524 0.738804 4.84029C0.738804 4.63533 0.794142 4.44267 0.904817 4.26231C1.01959 4.08195 1.18766 3.94258 1.40901 3.84421L7.48387 1.06502C7.82 0.917449 8.12743 0.808823 8.40617 0.739138C8.68901 0.665354 8.96365 0.630512 9.23009 0.634611C9.49653 0.630512 9.77117 0.665354 10.054 0.739138C10.3368 0.808823 10.6463 0.917449 10.9825 1.06502L17.0573 3.84421C17.2787 3.94258 17.4447 4.08195 17.5554 4.26231C17.6701 4.44267 17.7275 4.63533 17.7275 4.84029C17.7275 5.04524 17.6701 5.23995 17.5554 5.42441C17.4447 5.60477 17.2787 5.74209 17.0573 5.83637L10.9825 8.61556C10.6463 8.76722 10.3368 8.87995 10.054 8.95373C9.77117 9.02342 9.49653 9.05621 9.23009 9.05211ZM9.23009 7.86542C9.42684 7.86542 9.62565 7.83878 9.82651 7.78549C10.0315 7.7281 10.2631 7.64202 10.5213 7.52725L16.012 5.0309C16.1063 4.9858 16.1535 4.92227 16.1535 4.84029C16.1535 4.7624 16.1063 4.70092 16.012 4.65583L10.5213 2.15948C10.2631 2.0406 10.0315 1.95452 9.82651 1.90123C9.62565 1.84794 9.42684 1.8213 9.23009 1.8213C9.03333 1.8213 8.83452 1.84794 8.63367 1.90123C8.43281 1.95452 8.20326 2.0406 7.94502 2.15948L2.45428 4.65583C2.36 4.70092 2.31286 4.7624 2.31286 4.84029C2.31286 4.92227 2.36 4.9858 2.45428 5.0309L7.94502 7.52725C8.20326 7.64202 8.43281 7.7281 8.63367 7.78549C8.83452 7.83878 9.03333 7.86542 9.23009 7.86542ZM3.15522 9.40873V6.19299H4.32961V9.40873C4.32961 9.72026 4.44439 10.0215 4.67394 10.3126C4.90759 10.5995 5.23961 10.8557 5.67002 11.0812C6.10043 11.3025 6.61691 11.4788 7.21948 11.6099C7.82205 11.7452 8.49225 11.8129 9.23009 11.8129C9.97203 11.8129 10.6422 11.7452 11.2407 11.6099C11.8433 11.4788 12.3598 11.3025 12.7902 11.0812C13.2247 10.8557 13.5567 10.5995 13.7862 10.3126C14.0199 10.0215 14.1367 9.72026 14.1367 9.40873V6.19299H15.3111V9.40873C15.3111 9.89653 15.1635 10.3536 14.8684 10.7799C14.5774 11.2021 14.1634 11.5731 13.6264 11.8928C13.0894 12.2166 12.4479 12.4687 11.7018 12.6491C10.9558 12.8294 10.1319 12.9196 9.23009 12.9196C8.32829 12.9196 7.50437 12.8294 6.75833 12.6491C6.01639 12.4687 5.37489 12.2166 4.8338 11.8928C4.29682 11.5731 3.88281 11.2021 3.59178 10.7799C3.30074 10.3536 3.15522 9.89653 3.15522 9.40873ZM9.24853 5.62117C9.01898 5.62117 8.79763 5.58837 8.58448 5.52279C8.37543 5.4531 8.20326 5.36087 8.06799 5.2461C7.93682 5.12722 7.87124 4.99195 7.87124 4.84029C7.87124 4.69272 7.93682 4.56155 8.06799 4.44677C8.20326 4.332 8.37543 4.24182 8.58448 4.17623C8.79763 4.11065 9.01898 4.07785 9.24853 4.07785C9.48218 4.07785 9.70353 4.11065 9.91259 4.17623C10.1257 4.24182 10.2979 4.332 10.4291 4.44677C10.5602 4.56155 10.6258 4.69272 10.6258 4.84029C10.6258 4.99195 10.5602 5.12722 10.4291 5.2461C10.2979 5.36087 10.1278 5.4531 9.91874 5.52279C9.70968 5.58837 9.48628 5.62117 9.24853 5.62117ZM5.67002 7.11529L4.76617 6.63569L8.71975 4.58819L9.12556 5.30144L5.67002 7.11529ZM4.76617 13.1225V6.66029L5.67002 7.11529V13.1287L4.76617 13.1225ZM4.22509 13.2701C4.22509 13.0118 4.30297 12.8028 4.45874 12.6429C4.6186 12.4872 4.8297 12.4093 5.09205 12.4093H5.33799C5.59624 12.4093 5.80324 12.4872 5.95901 12.6429C6.11887 12.8028 6.1988 13.0118 6.1988 13.2701V14.9179C6.1988 15.1803 6.11887 15.3893 5.95901 15.5451C5.80324 15.7049 5.59624 15.7849 5.33799 15.7849H5.09205C4.8297 15.7849 4.6186 15.7049 4.45874 15.5451C4.30297 15.3893 4.22509 15.1803 4.22509 14.9179V13.2701Z" fill="#727272"/>
</svg>
