<svg width="16" height="17" viewBox="0 0 16 17" fill="none" xmlns="http://www.w3.org/2000/svg">
<path d="M12.1754 13.7584L7.55353 9.24747C7.47958 9.17845 7.42782 9.10696 7.39824 9.03301C7.36866 8.95906 7.35387 8.87032 7.35387 8.76679V2.14088H8.53707V7.85721L13.3882 5.07669L13.9872 6.1046L9.01774 8.94427L13.0702 12.9302L12.1754 13.7584ZM7.93807 16.2505C6.89291 16.2505 5.90938 16.0509 4.98747 15.6515C4.06556 15.2571 3.25211 14.7074 2.54712 14.0024C1.84706 13.2975 1.29737 12.484 0.89804 11.5621C0.49871 10.6402 0.299045 9.65666 0.299045 8.6115C0.299045 7.56634 0.49871 6.58281 0.89804 5.6609C1.29737 4.73899 1.84706 3.92801 2.54712 3.22795C3.25211 2.52296 4.0631 1.9708 4.98007 1.57147C5.90198 1.17214 6.88552 0.972474 7.93068 0.972474C8.98077 0.972474 9.96676 1.17214 10.8887 1.57147C11.8106 1.9708 12.624 2.52296 13.329 3.22795C14.034 3.92801 14.5862 4.73899 14.9855 5.6609C15.3848 6.58281 15.5845 7.56634 15.5845 8.6115C15.5845 9.65666 15.3848 10.6402 14.9855 11.5621C14.5862 12.484 14.034 13.2975 13.329 14.0024C12.624 14.7074 11.8106 15.2571 10.8887 15.6515C9.96676 16.0509 8.98323 16.2505 7.93807 16.2505ZM7.93807 14.7419C8.79096 14.7419 9.58715 14.5842 10.3267 14.2687C11.0662 13.9531 11.7169 13.5144 12.2789 12.9524C12.841 12.3903 13.2797 11.7396 13.5952 11.0001C13.9108 10.2606 14.0685 9.46439 14.0685 8.6115C14.0685 7.76354 13.9108 6.96981 13.5952 6.23031C13.2797 5.48588 12.841 4.83266 12.2789 4.27064C11.7169 3.70862 11.0637 3.26985 10.3193 2.95433C9.57976 2.63881 8.78357 2.48105 7.93068 2.48105C7.08272 2.48105 6.28652 2.63881 5.54209 2.95433C4.80259 3.26985 4.1543 3.70862 3.59721 4.27064C3.04012 4.83266 2.60382 5.48588 2.2883 6.23031C1.97278 6.96981 1.81502 7.76354 1.81502 8.6115C1.81502 9.46439 1.97278 10.2606 2.2883 11.0001C2.60382 11.7396 3.04012 12.3903 3.59721 12.9524C4.15923 13.5144 4.80999 13.9531 5.54949 14.2687C6.29392 14.5842 7.09011 14.7419 7.93807 14.7419Z" fill="white"/>
</svg>
