<svg width="16" height="17" viewBox="0 0 16 17" fill="none" xmlns="http://www.w3.org/2000/svg">
<path d="M12.1755 13.7584L7.55365 9.24747C7.4797 9.17845 7.42794 9.10696 7.39836 9.03301C7.36878 8.95906 7.35399 8.87032 7.35399 8.76679V2.14088H8.53719V7.85721L13.3883 5.07669L13.9873 6.1046L9.01786 8.94427L13.0703 12.9302L12.1755 13.7584ZM7.93819 16.2505C6.89303 16.2505 5.9095 16.0509 4.98759 15.6515C4.06568 15.2571 3.25223 14.7074 2.54724 14.0024C1.84719 13.2975 1.29749 12.484 0.898162 11.5621C0.498832 10.6402 0.299167 9.65666 0.299167 8.6115C0.299167 7.56634 0.498832 6.58281 0.898162 5.6609C1.29749 4.73899 1.84719 3.92801 2.54724 3.22795C3.25223 2.52296 4.06322 1.9708 4.9802 1.57147C5.90211 1.17214 6.88564 0.972474 7.9308 0.972474C8.98089 0.972474 9.96689 1.17214 10.8888 1.57147C11.8107 1.9708 12.6242 2.52296 13.3291 3.22795C14.0341 3.92801 14.5863 4.73899 14.9856 5.6609C15.3849 6.58281 15.5846 7.56634 15.5846 8.6115C15.5846 9.65666 15.3849 10.6402 14.9856 11.5621C14.5863 12.484 14.0341 13.2975 13.3291 14.0024C12.6242 14.7074 11.8107 15.2571 10.8888 15.6515C9.96689 16.0509 8.98335 16.2505 7.93819 16.2505ZM7.93819 14.7419C8.79108 14.7419 9.58728 14.5842 10.3268 14.2687C11.0663 13.9531 11.717 13.5144 12.2791 12.9524C12.8411 12.3903 13.2798 11.7396 13.5954 11.0001C13.9109 10.2606 14.0686 9.46439 14.0686 8.6115C14.0686 7.76354 13.9109 6.96981 13.5954 6.23031C13.2798 5.48588 12.8411 4.83266 12.2791 4.27064C11.717 3.70862 11.0638 3.26985 10.3194 2.95433C9.57988 2.63881 8.78369 2.48105 7.9308 2.48105C7.08284 2.48105 6.28665 2.63881 5.54222 2.95433C4.80272 3.26985 4.15442 3.70862 3.59733 4.27064C3.04024 4.83266 2.60394 5.48588 2.28842 6.23031C1.9729 6.96981 1.81514 7.76354 1.81514 8.6115C1.81514 9.46439 1.9729 10.2606 2.28842 11.0001C2.60394 11.7396 3.04024 12.3903 3.59733 12.9524C4.15935 13.5144 4.81011 13.9531 5.54961 14.2687C6.29404 14.5842 7.09023 14.7419 7.93819 14.7419Z" fill="#727272"/>
</svg>
