<svg width="14" height="17" viewBox="0 0 14 17" fill="none" xmlns="http://www.w3.org/2000/svg">
<path d="M3.3093 16.2155C2.54267 16.2155 1.96296 16.0214 1.57018 15.6334C1.1774 15.2453 0.981006 14.6704 0.981006 13.9085V6.92358C0.981006 6.16641 1.1774 5.5938 1.57018 5.20575C1.96296 4.81297 2.54267 4.61658 3.3093 4.61658H5.36785V6.01497H3.39448C3.06322 6.01497 2.81004 6.10252 2.63495 6.27762C2.46458 6.44798 2.3794 6.70589 2.3794 7.05135V13.7878C2.3794 14.1332 2.46458 14.3912 2.63495 14.5615C2.81004 14.7366 3.06322 14.8242 3.39448 14.8242H11.3944C11.721 14.8242 11.9718 14.7366 12.1469 14.5615C12.3267 14.3912 12.4166 14.1332 12.4166 13.7878V7.05135C12.4166 6.70589 12.3267 6.44798 12.1469 6.27762C11.9718 6.10252 11.721 6.01497 11.3944 6.01497H9.42817V4.61658H11.4867C12.2534 4.61658 12.8331 4.81297 13.2259 5.20575C13.6186 5.5938 13.815 6.16641 13.815 6.92358V13.9085C13.815 14.6656 13.6186 15.2382 13.2259 15.6263C12.8331 16.0191 12.2534 16.2155 11.4867 16.2155H3.3093ZM7.39801 11.6157C7.31283 11.6157 7.23002 11.6015 7.14957 11.5731C7.06912 11.5399 6.98394 11.4808 6.89402 11.3956L4.50894 9.0957C4.39063 8.97266 4.33148 8.83306 4.33148 8.6769C4.33148 8.51126 4.3859 8.37639 4.49474 8.27228C4.60832 8.16817 4.74792 8.11612 4.91355 8.11612C5.09338 8.11612 5.24008 8.18 5.35366 8.30778L6.34744 9.36545L6.80884 9.88363L6.73786 8.82596V1.47196C6.73786 1.29686 6.80174 1.14543 6.92952 1.01766C7.06202 0.889884 7.21819 0.825998 7.39801 0.825998C7.57784 0.825998 7.73164 0.889884 7.85941 1.01766C7.99192 1.14543 8.05817 1.29686 8.05817 1.47196V8.82596L7.98719 9.88363L8.44149 9.36545L9.43527 8.30778C9.55358 8.18 9.70028 8.11612 9.87538 8.11612C10.0363 8.11612 10.1735 8.16817 10.2871 8.27228C10.4054 8.37639 10.4645 8.51126 10.4645 8.6769C10.4645 8.83306 10.403 8.97266 10.28 9.0957L7.89491 11.3956C7.80972 11.4808 7.72691 11.5399 7.64646 11.5731C7.56601 11.6015 7.4832 11.6157 7.39801 11.6157Z" fill="#727272"/>
</svg>
