<svg width="34" height="33" viewBox="0 0 34 33" fill="none" xmlns="http://www.w3.org/2000/svg">
<rect x="0.763209" y="0.83285" width="32.0004" height="31.3338" rx="7.66677" fill="white" stroke="#E7EAE9" stroke-width="0.666676"/>
<path fill-rule="evenodd" clip-rule="evenodd" d="M14.8054 21.1665H11.9885C11.496 21.1665 11.0967 20.7672 11.0967 20.2747V19.6927C11.0967 19.3557 11.2305 19.0326 11.4688 18.7944C12.0843 18.1789 12.43 17.3441 12.43 16.4737V14.4997C12.43 11.9224 14.5194 9.83301 17.0968 9.83301C19.6741 9.83301 21.7635 11.9224 21.7635 14.4997V16.4737C21.7635 17.3441 22.1093 18.1789 22.7248 18.7944C22.963 19.0326 23.0968 19.3557 23.0968 19.6927V20.2747C23.0968 20.7672 22.6976 21.1665 22.205 21.1665H19.3881C19.3881 21.4042 19.3804 21.8574 19.1414 22.2914C18.7457 23.0096 17.9792 23.4999 17.0968 23.4999C16.2143 23.4999 15.4478 23.0096 15.0521 22.2914C14.8131 21.8574 14.8054 21.4042 14.8054 21.1665ZM22.0176 19.5015C22.0684 19.5522 22.0968 19.621 22.0968 19.6927V20.1665H12.0967V19.6927C12.0967 19.621 12.1252 19.5522 12.1759 19.5015C12.9789 18.6985 13.43 17.6093 13.43 16.4737V14.4997C13.43 12.4747 15.0717 10.833 17.0968 10.833C19.1219 10.833 20.7635 12.4747 20.7635 14.4997V16.4737C20.7635 17.6093 21.2146 18.6985 22.0176 19.5015ZM18.3881 21.1665H15.8054C15.8054 21.3878 15.8213 21.615 15.9281 21.8089C16.0025 21.9442 16.0999 22.0651 16.2148 22.1665C16.4498 22.374 16.7586 22.4998 17.0968 22.4998C17.4349 22.4998 17.7436 22.374 17.9787 22.1665C18.0936 22.0651 18.1909 21.9442 18.2654 21.8089C18.3722 21.615 18.3881 21.3878 18.3881 21.1665Z" fill="black"/>
<circle cx="21.0968" cy="11.833" r="2.33337" fill="#D34645" stroke="white" stroke-width="0.666676"/>
</svg>
