<svg width="19" height="19" viewBox="0 0 19 19" fill="none" xmlns="http://www.w3.org/2000/svg">
<path d="M14.7871 3.7334H3.54385C3.23338 3.7334 2.98169 3.98509 2.98169 4.29556V15.5388C2.98169 15.8493 3.23338 16.101 3.54385 16.101H14.7871C15.0976 16.101 15.3493 15.8493 15.3493 15.5388V4.29556C15.3493 3.98509 15.0976 3.7334 14.7871 3.7334Z" stroke="#727272" stroke-width="1.34919" stroke-linecap="round" stroke-linejoin="round"/>
<path d="M12.5386 2.60889V4.85754" stroke="#727272" stroke-width="1.34919" stroke-linecap="round" stroke-linejoin="round"/>
<path d="M5.79248 2.60889V4.85754" stroke="#727272" stroke-width="1.34919" stroke-linecap="round" stroke-linejoin="round"/>
<path d="M2.98169 7.10596H15.3493" stroke="#727272" stroke-width="1.34919" stroke-linecap="round" stroke-linejoin="round"/>
<path d="M6.63574 9.9165H8.60331L7.47899 11.3219C7.66385 11.3219 7.84587 11.3675 8.00891 11.4546C8.17196 11.5418 8.311 11.6678 8.41373 11.8215C8.51646 11.9751 8.57971 12.1518 8.59787 12.3358C8.61603 12.5197 8.58855 12.7054 8.51786 12.8762C8.44716 13.047 8.33544 13.1977 8.19258 13.3151C8.04972 13.4324 7.88013 13.5127 7.69883 13.5489C7.51754 13.585 7.33012 13.5759 7.15319 13.5223C6.97625 13.4687 6.81525 13.3724 6.68445 13.2417" stroke="#727272" stroke-width="1.34919" stroke-linecap="round" stroke-linejoin="round"/>
<path d="M10.2898 10.7597L11.4141 9.9165V13.5706" stroke="#727272" stroke-width="1.34919" stroke-linecap="round" stroke-linejoin="round"/>
</svg>
