<svg width="19" height="19" viewBox="0 0 19 19" fill="none" xmlns="http://www.w3.org/2000/svg">
<path d="M7.72119 11.6255H12.2185" stroke="white" stroke-width="1.34919" stroke-linecap="round" stroke-linejoin="round"/>
<path d="M7.72119 9.37695H12.2185" stroke="white" stroke-width="1.34919" stroke-linecap="round" stroke-linejoin="round"/>
<path d="M12.2188 3.75537H15.0295C15.1786 3.75537 15.3216 3.8146 15.427 3.92002C15.5324 4.02545 15.5916 4.16844 15.5916 4.31753V16.1229C15.5916 16.272 15.5324 16.415 15.427 16.5204C15.3216 16.6259 15.1786 16.6851 15.0295 16.6851H4.91055C4.76146 16.6851 4.61847 16.6259 4.51304 16.5204C4.40762 16.415 4.34839 16.272 4.34839 16.1229V4.31753C4.34839 4.16844 4.40762 4.02545 4.51304 3.92002C4.61847 3.8146 4.76146 3.75537 4.91055 3.75537H7.72121" stroke="white" stroke-width="1.34919" stroke-linecap="round" stroke-linejoin="round"/>
<path d="M7.15918 6.00383V5.44167C7.15918 4.6962 7.45532 3.98126 7.98245 3.45413C8.50958 2.927 9.22452 2.63086 9.96999 2.63086C10.7155 2.63086 11.4304 2.927 11.9575 3.45413C12.4847 3.98126 12.7808 4.6962 12.7808 5.44167V6.00383H7.15918Z" stroke="white" stroke-width="1.34919" stroke-linecap="round" stroke-linejoin="round"/>
</svg>
