<svg width="17" height="13" viewBox="0 0 17 13" fill="none" xmlns="http://www.w3.org/2000/svg">
<path d="M7.95452 9.19888H7.05776L5.31578 10.7296C5.10276 10.9151 4.91551 11.0491 4.75402 11.1315C4.59597 11.214 4.42933 11.2552 4.2541 11.2552C3.99985 11.2552 3.80057 11.1745 3.65627 11.013C3.51196 10.8515 3.43981 10.6299 3.43981 10.3482V9.19888H3.29035C2.81276 9.19888 2.39015 9.09752 2.02251 8.8948C1.65831 8.69209 1.37142 8.40176 1.16183 8.02381C0.955681 7.64587 0.852606 7.19577 0.852606 6.67352V2.58657C0.852606 2.06776 0.953963 1.61938 1.15668 1.24143C1.35939 0.863488 1.64801 0.573158 2.02251 0.370442C2.40046 0.164291 2.85227 0.061215 3.37796 0.061215H9.84081C10.3665 0.061215 10.8183 0.164291 11.1963 0.370442C11.5742 0.573158 11.8628 0.863488 12.0621 1.24143C12.2648 1.61938 12.3662 2.06776 12.3662 2.58657V3.4421H11.0365V2.66903C11.0365 2.24642 10.93 1.9286 10.717 1.71558C10.5074 1.49912 10.1895 1.39089 9.7635 1.39089H3.46042C3.03094 1.39089 2.70969 1.49912 2.49666 1.71558C2.28708 1.9286 2.18228 2.24642 2.18228 2.66903V6.59622C2.18228 7.01883 2.28708 7.33664 2.49666 7.54967C2.70969 7.76269 3.03094 7.8692 3.46042 7.8692H4.09949C4.2541 7.8692 4.37092 7.907 4.44995 7.98258C4.53241 8.05474 4.57364 8.17671 4.57364 8.3485V9.7761L6.18677 8.19389C6.3139 8.06676 6.429 7.98087 6.53208 7.9362C6.63859 7.89153 6.78118 7.8692 6.95984 7.8692H7.41338L7.95452 9.19888ZM9.14505 10.2554C8.65372 10.2554 8.23111 10.1678 7.87722 9.99256C7.52676 9.81733 7.25704 9.5648 7.06807 9.23495C6.88254 8.90511 6.78977 8.50827 6.78977 8.04443V4.89031C6.78977 4.40929 6.88254 3.99699 7.06807 3.6534C7.25704 3.30982 7.52676 3.04698 7.87722 2.86487C8.23111 2.67934 8.65372 2.58657 9.14505 2.58657H14.1339C14.6287 2.58657 15.0513 2.67934 15.4017 2.86487C15.7522 3.04698 16.0202 3.30982 16.2057 3.6534C16.3947 3.99699 16.4892 4.40929 16.4892 4.89031V8.04443C16.4892 8.50827 16.3999 8.90511 16.2212 9.23495C16.0425 9.5648 15.7848 9.81733 15.4481 9.99256C15.1114 10.1678 14.706 10.2554 14.2318 10.2554H14.1494V11.348C14.1494 11.6229 14.0772 11.8428 13.9329 12.0077C13.7886 12.1726 13.591 12.2551 13.3402 12.2551C13.1822 12.2551 13.0138 12.207 12.8352 12.1108C12.6565 12.018 12.4727 11.8909 12.2837 11.7294L10.5675 10.2554H9.14505ZM9.33574 8.98757H10.5726C10.717 8.98757 10.8613 9.02021 11.0056 9.08549C11.1499 9.14734 11.2839 9.23839 11.4076 9.35864L13.0155 10.8378V9.51326C13.0155 9.3449 13.0636 9.21606 13.1598 9.12672C13.2561 9.03396 13.3797 8.98757 13.5309 8.98757H13.9484C14.3572 8.98757 14.6665 8.88106 14.8761 8.66804C15.0856 8.45501 15.1904 8.15094 15.1904 7.75582V5.09131C15.1904 4.69275 15.0856 4.38696 14.8761 4.17394C14.6665 3.96091 14.3572 3.8544 13.9484 3.8544H9.33574C8.92343 3.8544 8.61249 3.96091 8.4029 4.17394C8.19675 4.38696 8.09367 4.69275 8.09367 5.09131V7.75582C8.09367 8.15094 8.19675 8.45501 8.4029 8.66804C8.61249 8.88106 8.92343 8.98757 9.33574 8.98757Z" fill="#727272"/>
</svg>
