<svg width="19" height="19" viewBox="0 0 19 19" fill="none" xmlns="http://www.w3.org/2000/svg">
<path d="M11.1813 16.0145H3.54385C3.39476 16.0145 3.25177 15.9553 3.14634 15.8499C3.04092 15.7445 2.98169 15.6015 2.98169 15.4524V4.20913C2.98169 4.06004 3.04092 3.91705 3.14634 3.81163C3.25177 3.7062 3.39476 3.64697 3.54385 3.64697H14.7871C14.9362 3.64697 15.0792 3.7062 15.1846 3.81163C15.29 3.91705 15.3493 4.06004 15.3493 4.20913V11.8466C15.3493 11.9204 15.3347 11.9935 15.3065 12.0617C15.2782 12.1299 15.2368 12.1919 15.1846 12.2441L11.5788 15.8499C11.5266 15.9021 11.4646 15.9435 11.3964 15.9717C11.3282 16 11.2551 16.0145 11.1813 16.0145V16.0145Z" stroke="#727272" stroke-width="1.34919" stroke-linecap="round" stroke-linejoin="round"/>
<path d="M15.2987 12.0786H11.4141V15.9632" stroke="#727272" stroke-width="1.34919" stroke-linecap="round" stroke-linejoin="round"/>
</svg>
