<svg width="19" height="19" viewBox="0 0 19 19" fill="none" xmlns="http://www.w3.org/2000/svg">
<path d="M11.1815 15.9931H3.5441C3.395 15.9931 3.25201 15.9338 3.14659 15.8284C3.04116 15.723 2.98193 15.58 2.98193 15.4309V4.18765C2.98193 4.03856 3.04116 3.89557 3.14659 3.79014C3.25201 3.68472 3.395 3.62549 3.5441 3.62549H14.7873C14.9364 3.62549 15.0794 3.68472 15.1848 3.79014C15.2903 3.89557 15.3495 4.03856 15.3495 4.18765V11.8251C15.3495 11.8989 15.335 11.972 15.3067 12.0402C15.2785 12.1084 15.237 12.1704 15.1848 12.2226L11.579 15.8284C11.5268 15.8806 11.4648 15.922 11.3966 15.9503C11.3284 15.9785 11.2553 15.9931 11.1815 15.9931V15.9931Z" stroke="white" stroke-width="1.34919" stroke-linecap="round" stroke-linejoin="round"/>
<path d="M15.2987 12.0571H11.4141V15.9417" stroke="white" stroke-width="1.34919" stroke-linecap="round" stroke-linejoin="round"/>
</svg>
