<svg width="15" height="14" viewBox="0 0 15 14" fill="none" xmlns="http://www.w3.org/2000/svg">
<path d="M4.69853 13.8119C4.45259 13.8119 4.25993 13.732 4.12056 13.5721C3.98529 13.4123 3.91766 13.195 3.91766 12.9204V11.4078H3.58563C2.99126 11.4078 2.48092 11.293 2.05461 11.0635C1.63241 10.8339 1.30653 10.506 1.07698 10.0797C0.851529 9.64929 0.738804 9.12871 0.738804 8.51794V3.74659C0.738804 3.13582 0.851529 2.61729 1.07698 2.19098C1.30243 1.76057 1.62831 1.4306 2.05461 1.20105C2.48502 0.971498 3.0097 0.856724 3.62867 0.856724H11.6281C12.2429 0.856724 12.7656 0.971498 13.196 1.20105C13.6264 1.4306 13.9543 1.76057 14.1798 2.19098C14.4052 2.61729 14.5179 3.13582 14.5179 3.74659V8.51794C14.5179 9.12871 14.4052 9.64929 14.1798 10.0797C13.9543 10.506 13.6264 10.8339 13.196 11.0635C12.7656 11.293 12.2429 11.4078 11.6281 11.4078H7.8282L5.72536 13.2708C5.5163 13.4553 5.33594 13.5906 5.18428 13.6767C5.03261 13.7668 4.8707 13.8119 4.69853 13.8119ZM4.99982 12.4531L6.94894 10.5224C7.08011 10.3912 7.20103 10.3051 7.31171 10.2642C7.42648 10.2191 7.57815 10.1965 7.76671 10.1965H11.5912C12.1732 10.1965 12.6036 10.0531 12.8824 9.76612C13.1652 9.47508 13.3066 9.04467 13.3066 8.4749V3.78348C13.3066 3.2178 13.1652 2.7915 12.8824 2.50456C12.6036 2.21353 12.1732 2.06801 11.5912 2.06801H3.65941C3.08144 2.06801 2.65103 2.21353 2.3682 2.50456C2.08946 2.7915 1.95009 3.2178 1.95009 3.78348V8.4749C1.95009 9.04467 2.08946 9.47508 2.3682 9.76612C2.65103 10.0531 3.08144 10.1965 3.65941 10.1965H4.50178C4.67394 10.1965 4.79896 10.2355 4.87684 10.3133C4.95883 10.3871 4.99982 10.5163 4.99982 10.7007V12.4531ZM5.14739 8.56713C4.83585 8.56713 4.59196 8.48515 4.4157 8.32118C4.24353 8.15312 4.15745 7.91537 4.15745 7.60794V4.68733C4.15745 4.3799 4.24763 4.14215 4.42799 3.97409C4.60835 3.80193 4.84815 3.71585 5.14739 3.71585H8.28934C8.60088 3.71585 8.83862 3.80193 9.00259 3.97409C9.17065 4.14215 9.25468 4.3799 9.25468 4.68733V7.59564C9.25468 7.89898 9.16655 8.13672 8.99029 8.30889C8.81813 8.48105 8.57628 8.56713 8.26475 8.56713H5.14739ZM9.59901 7.01767V5.27145L10.6996 4.33071C10.7611 4.28562 10.8226 4.24873 10.8841 4.22003C10.9456 4.18724 11.007 4.17085 11.0685 4.17085C11.1874 4.17085 11.2837 4.20979 11.3575 4.28767C11.4313 4.36145 11.4682 4.46393 11.4682 4.5951V7.68787C11.4682 7.82314 11.4313 7.92972 11.3575 8.0076C11.2837 8.08139 11.1874 8.11828 11.0685 8.11828C11.007 8.11828 10.9456 8.10393 10.8841 8.07524C10.8226 8.04244 10.7611 8.00145 10.6996 7.95226L9.59901 7.01767Z" fill="#727272"/>
</svg>
