<svg width="15" height="12" viewBox="0 0 15 12" fill="none" xmlns="http://www.w3.org/2000/svg">
<path d="M2.61933 11.0654C1.97686 11.0654 1.48727 10.899 1.15055 10.5661C0.817707 10.2371 0.651284 9.75529 0.651284 9.12057V2.04374C0.651284 1.41288 0.811901 0.932968 1.13314 0.603993C1.45437 0.275019 1.89945 0.110531 2.46839 0.110531H4.09971C4.30871 0.110531 4.48868 0.126013 4.63962 0.156975C4.79443 0.184067 4.93376 0.23051 5.05761 0.296305C5.18533 0.3621 5.32079 0.451117 5.46399 0.563355L5.77748 0.818794C5.94778 0.954255 6.10839 1.05101 6.25933 1.10907C6.41028 1.16325 6.59411 1.19034 6.81085 1.19034H12.0822C12.7208 1.19034 13.2065 1.35676 13.5393 1.68961C13.8761 2.02245 14.0444 2.50624 14.0444 3.14097V9.12057C14.0444 9.75529 13.8819 10.2371 13.5568 10.5661C13.2355 10.899 12.7846 11.0654 12.2041 11.0654H2.61933ZM2.72382 9.77658H11.9719C12.2235 9.77658 12.417 9.71272 12.5524 9.585C12.6879 9.45341 12.7556 9.25409 12.7556 8.98704V3.2803C12.7556 3.00938 12.6879 2.81006 12.5524 2.68234C12.417 2.55075 12.2235 2.48495 11.9719 2.48495H6.46252C6.25353 2.48495 6.07163 2.47141 5.91681 2.44432C5.76587 2.41335 5.62461 2.36498 5.49302 2.29918C5.3653 2.23339 5.23177 2.14437 5.09244 2.03213L4.77895 1.77669C4.60866 1.63736 4.44804 1.5406 4.2971 1.48642C4.15003 1.42837 3.97006 1.39934 3.75719 1.39934H2.71802C2.47032 1.39934 2.27874 1.46707 2.14328 1.60253C2.00782 1.73412 1.94009 1.92376 1.94009 2.17146V8.98704C1.94009 9.25409 2.00589 9.45341 2.13748 9.585C2.27294 9.71272 2.46839 9.77658 2.72382 9.77658ZM1.46985 4.72005V3.62282H13.2433V4.72005H1.46985Z" fill="#727272"/>
</svg>
