<svg width="46" height="19" viewBox="0 0 46 19" fill="none" xmlns="http://www.w3.org/2000/svg">
<rect x="0.662109" y="0.205078" width="18.5893" height="18.5893" rx="1.85893" fill="#FF4B00" fill-opacity="0.06"/>
<path d="M12.9775 4.85254H12.9775C13.4089 4.85254 13.8226 5.02391 14.1277 5.32895C14.4327 5.63398 14.6041 6.04771 14.6041 6.4791V6.4791C14.6041 6.91049 14.4327 7.32421 14.1277 7.62925C13.8226 7.93429 13.4089 8.10566 12.9775 8.10566H11.351V6.4791C11.351 6.04771 11.5223 5.63399 11.8274 5.32895C12.1324 5.02391 12.5461 4.85254 12.9775 4.85254V4.85254Z" stroke="#FF4B00" stroke-width="1.39419" stroke-linecap="round" stroke-linejoin="round"/>
<path d="M8.5625 8.10547H6.93594C6.50455 8.10547 6.09083 7.9341 5.78579 7.62906C5.48075 7.32402 5.30938 6.9103 5.30938 6.47891V6.47891C5.30938 6.04752 5.48075 5.63379 5.78579 5.32876C6.09083 5.02372 6.50455 4.85235 6.93594 4.85235H6.93594C7.36733 4.85235 7.78105 5.02372 8.08609 5.32876C8.39113 5.6338 8.5625 6.04752 8.5625 6.47891V8.10547Z" stroke="#FF4B00" stroke-width="1.39419" stroke-linecap="round" stroke-linejoin="round"/>
<path d="M11.351 10.894H12.9775C13.4089 10.894 13.8226 11.0654 14.1277 11.3705C14.4327 11.6755 14.6041 12.0892 14.6041 12.5206V12.5206C14.6041 12.952 14.4327 13.3657 14.1277 13.6708C13.8226 13.9758 13.4089 14.1472 12.9775 14.1472H12.9775C12.5461 14.1472 12.1324 13.9758 11.8274 13.6708C11.5223 13.3657 11.351 12.952 11.351 12.5206V10.894Z" stroke="#FF4B00" stroke-width="1.39419" stroke-linecap="round" stroke-linejoin="round"/>
<path d="M6.93594 14.147H6.93594C6.50455 14.147 6.09083 13.9756 5.78579 13.6706C5.48075 13.3655 5.30938 12.9518 5.30938 12.5204V12.5204C5.30938 12.089 5.48075 11.6753 5.78579 11.3703C6.09083 11.0652 6.50455 10.8939 6.93594 10.8939H8.5625V12.5204C8.5625 12.9518 8.39113 13.3655 8.08609 13.6706C7.78105 13.9756 7.36733 14.147 6.93594 14.147V14.147Z" stroke="#FF4B00" stroke-width="1.39419" stroke-linecap="round" stroke-linejoin="round"/>
<path d="M11.3509 8.10547H8.5625V10.8939H11.3509V8.10547Z" stroke="#FF4B00" stroke-width="1.39419" stroke-linecap="round" stroke-linejoin="round"/>
<rect x="26.687" y="0.205078" width="18.5893" height="18.5893" rx="1.85893" fill="#FF4B00" fill-opacity="0.06"/>
<path d="M32.6699 14.4995V3.68394H39.3768V5.0887H34.3018V8.38407H38.8963V9.78354H34.3018V14.4995H32.6699Z" fill="#FF4B00"/>
</svg>
