<svg width="14" height="14" viewBox="0 0 14 14" fill="none" xmlns="http://www.w3.org/2000/svg">
<path d="M6.39556 13.5499C6.12912 13.5499 5.89752 13.472 5.70076 13.3162C5.50401 13.1646 5.37693 12.9617 5.31955 12.7075L5.0736 11.6622L4.93833 11.6192L4.03448 12.1726C3.80493 12.3161 3.56513 12.3693 3.31509 12.3325C3.06914 12.2997 2.85394 12.189 2.66948 12.0004L1.80252 11.1396C1.60986 10.947 1.49714 10.7277 1.46434 10.4817C1.43565 10.2317 1.49304 9.99596 1.63651 9.77461L2.19603 8.87691L2.14684 8.74779L1.11387 8.50184C0.859727 8.44036 0.654772 8.31124 0.499007 8.11448C0.34734 7.91772 0.271507 7.68612 0.271507 7.41968V6.21455C0.271507 5.9481 0.34734 5.71651 0.499007 5.51975C0.650673 5.32299 0.855628 5.19387 1.11387 5.13238L2.1407 4.88029L2.18989 4.74502L1.63036 3.84732C1.49099 3.62596 1.43565 3.39232 1.46434 3.14637C1.49714 2.90042 1.60986 2.67907 1.80252 2.48232L2.66333 1.61536C2.85189 1.4309 3.06914 1.32227 3.31509 1.28948C3.56103 1.25259 3.79673 1.30382 4.02218 1.44319L4.92603 2.00272L5.0736 1.94738L5.31955 0.902113C5.37693 0.652068 5.50401 0.449163 5.70076 0.293397C5.89752 0.137631 6.12912 0.0597483 6.39556 0.0597483H7.64989C7.91633 0.0597483 8.14793 0.137631 8.34468 0.293397C8.54144 0.445064 8.66851 0.647969 8.7259 0.902113L8.9657 1.94738L9.11326 2.00272L10.0233 1.44319C10.2446 1.30382 10.4783 1.25259 10.7242 1.28948C10.9743 1.32227 11.1915 1.4309 11.376 1.61536L12.2429 2.48232C12.4356 2.67907 12.5463 2.90042 12.575 3.14637C12.6077 3.39232 12.5545 3.62596 12.4151 3.84732L11.8494 4.74502L11.9048 4.88029L12.9316 5.13238C13.1857 5.19387 13.3886 5.32299 13.5403 5.51975C13.6961 5.71651 13.7739 5.9481 13.7739 6.21455V7.41968C13.7739 7.68612 13.6961 7.91772 13.5403 8.11448C13.3886 8.31124 13.1857 8.44036 12.9316 8.50184L11.8986 8.74779L11.8433 8.87691L12.4089 9.77461C12.5483 9.99596 12.6016 10.2317 12.5688 10.4817C12.5401 10.7277 12.4315 10.947 12.2429 11.1396L11.376 12.0004C11.1874 12.189 10.9681 12.2997 10.7181 12.3325C10.4721 12.3693 10.2385 12.3161 10.0171 12.1726L9.10712 11.6192L8.9657 11.6622L8.7259 12.7075C8.66851 12.9617 8.54144 13.1646 8.34468 13.3162C8.14793 13.472 7.91633 13.5499 7.64989 13.5499H6.39556ZM6.59232 12.3202H7.45313C7.55151 12.3202 7.60684 12.273 7.61914 12.1787L7.98806 10.6723C8.19712 10.6272 8.39387 10.5657 8.57833 10.4879C8.76279 10.41 8.937 10.3198 9.10097 10.2173L10.4168 11.0228C10.4947 11.0761 10.5684 11.0679 10.6381 10.9982L11.2407 10.3956C11.3063 10.3341 11.3124 10.2624 11.2591 10.1804L10.4475 8.86461C10.5418 8.70885 10.6279 8.53669 10.7058 8.34813C10.7836 8.15547 10.8472 7.96076 10.8964 7.76401L12.4089 7.40738C12.4991 7.39099 12.5442 7.3336 12.5442 7.23522V6.39286C12.5442 6.29858 12.4991 6.24324 12.4089 6.22684L10.8964 5.85792C10.8513 5.65297 10.7877 5.45621 10.7058 5.26765C10.6238 5.075 10.5398 4.90488 10.4537 4.75732L11.2653 3.44151C11.3186 3.35952 11.3124 3.28574 11.2468 3.22015L10.6443 2.62373C10.5746 2.56225 10.4988 2.55405 10.4168 2.59914L9.10097 3.39846C8.9411 3.30419 8.76689 3.21605 8.57833 3.13407C8.39387 3.05209 8.19712 2.98855 7.98806 2.94346L7.61914 1.4309C7.60684 1.33662 7.55151 1.28948 7.45313 1.28948H6.59232C6.49394 1.28948 6.43655 1.33662 6.42016 1.4309L6.06353 2.93117C5.85858 2.98036 5.65362 3.04799 5.44867 3.13407C5.24781 3.21605 5.07565 3.30214 4.93218 3.39232L3.62252 2.59299C3.54054 2.5479 3.4647 2.55815 3.39502 2.62373L2.7863 3.21401C2.72482 3.27959 2.72072 3.35542 2.77401 3.44151L3.58563 4.75732C3.49955 4.90488 3.41552 5.075 3.33353 5.26765C3.25155 5.45621 3.18802 5.65502 3.14293 5.86407L1.63651 6.22684C1.54633 6.24324 1.50124 6.29858 1.50124 6.39286V7.23522C1.50124 7.3336 1.54633 7.39099 1.63651 7.40738L3.14907 7.76401C3.19416 7.96486 3.25565 8.15957 3.33353 8.34813C3.41142 8.53259 3.4975 8.70475 3.59178 8.86461L2.77401 10.1804C2.72892 10.2665 2.73711 10.3403 2.7986 10.4018L3.40117 11.0043C3.47495 11.074 3.54874 11.0822 3.62252 11.0289L4.94448 10.2173C5.10434 10.3198 5.27856 10.412 5.46711 10.494C5.65977 10.5719 5.85653 10.6313 6.05739 10.6723L6.42016 12.1787C6.43655 12.273 6.49394 12.3202 6.59232 12.3202ZM7.02272 9.13515C6.59642 9.13515 6.207 9.03063 5.85448 8.82157C5.50196 8.60842 5.21912 8.32558 5.00597 7.97306C4.79691 7.62054 4.69239 7.23112 4.69239 6.80482C4.69239 6.38261 4.79691 5.99524 5.00597 5.64272C5.21912 5.2902 5.50196 5.00941 5.85448 4.80036C6.207 4.5913 6.59642 4.48678 7.02272 4.48678C7.44903 4.48678 7.83844 4.5913 8.19097 4.80036C8.54349 5.00941 8.82428 5.2902 9.03333 5.64272C9.24239 5.99524 9.34691 6.38261 9.34691 6.80482C9.34691 7.23112 9.24239 7.62054 9.03333 7.97306C8.82428 8.32558 8.54349 8.60842 8.19097 8.82157C7.83844 9.03063 7.44903 9.13515 7.02272 9.13515ZM7.02272 8.0038C7.23588 8.0038 7.43058 7.95051 7.60684 7.84394C7.78721 7.73326 7.93067 7.58774 8.03725 7.40738C8.14793 7.22292 8.20326 7.02207 8.20326 6.80482C8.20326 6.58756 8.14793 6.39081 8.03725 6.21455C7.93067 6.03419 7.78721 5.89072 7.60684 5.78414C7.43058 5.67346 7.23588 5.61813 7.02272 5.61813C6.80547 5.61813 6.60666 5.67142 6.4263 5.77799C6.24594 5.88457 6.10043 6.02804 5.98975 6.2084C5.88317 6.38876 5.82989 6.58756 5.82989 6.80482C5.82989 7.02617 5.88317 7.22702 5.98975 7.40738C6.10043 7.58774 6.24594 7.73326 6.4263 7.84394C6.60666 7.95051 6.80547 8.0038 7.02272 8.0038Z" fill="#727272"/>
</svg>
